<svg width="169" height="63" viewBox="0 0 169 63" fill="none" xmlns="http://www.w3.org/2000/svg">
<path fill-rule="evenodd" clip-rule="evenodd" d="M89.2084 52.7784V37.2668L71.217 30.2818L80.6598 21.0905L68.2841 10.0879L64.7743 16.8224L64.9089 10.348L49.2253 15.3676L49.6292 23.8074L52.2928 23.1137L55.0622 52.894L66.1205 51.2657L66.1013 41.3229L89.2084 52.7784Z" fill="#0B0000"/>
<path fill-rule="evenodd" clip-rule="evenodd" d="M52.1768 17.534L61.7061 14.6919L62.2927 24.5287L69.3124 14.6533L76.1685 21.1951L66.5814 31.321L86.3133 39.1539V48.1621L63.3889 36.6682L63.4274 48.7113L57.4944 49.5206L54.9654 19.3935L52.2922 20.0872L52.1768 17.534Z" fill="white"/>
<path fill-rule="evenodd" clip-rule="evenodd" d="M124.43 11.5708H114.045L113.747 13.2761H102.823L97.717 44.5593L110.179 46.5248L110.862 42.0351L114.122 48.0567L116.103 44.2125L116.834 50.5231L130.959 53.0184L124.43 11.5708Z" fill="#0B0000"/>
<path fill-rule="evenodd" clip-rule="evenodd" d="M116.777 14.4624H122.065L127.421 49.3104L119.613 48.1157L117.536 34.3287L114.603 41.9304L110.199 32.4307H110.151L108.411 43.443L101.093 42.1616L105.449 16.0714H112.853L114.7 26.1876L116.777 14.4624Z" fill="white"/>
<path fill-rule="evenodd" clip-rule="evenodd" d="M137.653 14.4229L153.279 17.8624L154.443 23.6431L155.702 18.4308L169.001 21.6584L156.231 60.206L146.432 57.1133L146.356 53.2499L136.951 51.93L140.124 23.6431L137.769 23.1132L137.653 14.4229Z" fill="#0B0000"/>
<path fill-rule="evenodd" clip-rule="evenodd" d="M140.432 18.0354L150.616 20.0875L154.049 36.3699L157.558 21.7736L165.309 23.4982L154.395 56.6216L148.971 54.9933L148.5 34.9729L145.769 50.417L139.855 49.4824L142.509 21.4364L140.279 20.839L140.432 18.0354Z" fill="white"/>
<path fill-rule="evenodd" clip-rule="evenodd" d="M136.153 47.4784C132.778 48.7501 129.191 48.6056 126.306 47.0641C123.633 45.6478 121.767 43.191 121.046 40.1561C119.604 34.1057 123.595 27.1977 129.941 24.7602C133.355 23.4692 136.97 23.6233 139.874 25.1745C142.519 26.5811 144.365 28.9801 145.067 31.9283C146.538 38.0654 142.548 45.0408 136.153 47.4784Z" fill="#0B0000"/>
<path fill-rule="evenodd" clip-rule="evenodd" d="M142.594 32.4881C141.44 27.6323 136.266 25.1947 130.958 27.1987C125.814 29.1738 122.439 34.7522 123.602 39.608C124.795 44.6179 129.92 47.0458 135.228 45.0418C140.411 43.0764 143.786 37.4595 142.594 32.4881Z" fill="white"/>
<path fill-rule="evenodd" clip-rule="evenodd" d="M138.738 33.3441C138.633 36.0225 136.306 38.0457 133.459 37.9301C130.661 37.8145 128.507 35.6178 128.613 32.9394C128.719 30.4248 131.036 28.4016 133.882 28.5172C136.69 28.6328 138.844 30.8295 138.738 33.3441Z" fill="#0B0000"/>
<path fill-rule="evenodd" clip-rule="evenodd" d="M135.122 28.6329C133.42 28.5654 131.997 29.7409 131.929 31.2535C131.872 32.7661 133.199 34.0571 134.901 34.1246C136.603 34.192 138.026 33.0166 138.093 31.504C138.151 29.9914 136.824 28.7003 135.122 28.6329Z" fill="white"/>
<path fill-rule="evenodd" clip-rule="evenodd" d="M50.0027 50.8518C46.5506 52.3163 42.81 52.3163 39.7425 50.8422C36.9058 49.4741 34.8576 47.0077 33.9826 43.8765C32.2325 37.6429 36.0885 30.2918 42.5888 27.4882C46.0794 26.0141 49.8489 26.0141 52.9356 27.5074C55.7434 28.8563 57.7628 31.2745 58.6186 34.3094C60.4072 40.6296 56.5415 48.0578 50.0027 50.8518Z" fill="#0B0000"/>
<path fill-rule="evenodd" clip-rule="evenodd" d="M56.1474 34.6944C54.7242 29.6459 49.2046 27.3144 43.7236 29.6459C38.406 31.9389 35.1077 37.9316 36.5309 42.9801C37.9925 48.1923 43.4736 50.5143 48.9546 48.1923C54.3107 45.8993 57.609 39.8585 56.1474 34.6944Z" fill="white"/>
<path fill-rule="evenodd" clip-rule="evenodd" d="M52.4366 35.6571C52.4366 38.3355 50.1961 40.4455 47.3498 40.4455C44.5515 40.4455 42.311 38.3355 42.311 35.6571C42.311 33.1425 44.5515 31.0229 47.3979 31.0229C50.1961 31.0229 52.4366 33.1329 52.4366 35.6571Z" fill="#0B0000"/>
<path fill-rule="evenodd" clip-rule="evenodd" d="M48.6375 31.0898C46.9355 31.0898 45.5508 32.3231 45.5508 33.8357C45.5508 35.3483 46.9259 36.5815 48.6375 36.5815C50.3395 36.5815 51.7242 35.3483 51.7242 33.8357C51.7242 32.3231 50.3395 31.0898 48.6375 31.0898Z" fill="white"/>
<path fill-rule="evenodd" clip-rule="evenodd" d="M30.9537 41.545C38.3772 36.0822 41.9158 27.8255 39.233 21.6305C38.0599 18.9232 36.002 16.688 33.4827 15.2813C31.7133 14.1059 29.6075 13.3641 27.3958 13.1136C21.9724 12.1598 15.4624 13.1425 9.05821 15.869C6.7023 16.871 4.50026 18.0272 2.51937 19.2893L0 20.879L1.5097 23.4418L6.20228 31.3902C6.20228 31.3902 7.64467 33.8374 7.65428 33.8278L10.2025 32.5849L10.5583 32.4115L22.2224 58.5113L23.3475 61.0163L25.963 60.1781L32.2807 58.1549L35.0501 57.2685L34.3193 54.4552L30.9537 41.545Z" fill="black"/>
<path fill-rule="evenodd" clip-rule="evenodd" d="M36.4136 22.8526C35.4809 20.7041 33.875 19.0181 31.7788 17.833C30.2594 16.8214 28.4997 16.3204 26.8554 16.1374C22.1821 15.3184 16.3644 16.0892 10.2391 18.6905C8.05626 19.6154 6.01768 20.6752 4.14258 21.8699L8.83515 29.8183C10.0371 29.2306 11.3353 28.6044 12.0373 28.2287L25.0091 57.2381L31.3268 55.2149L27.4324 40.2043C34.9039 35.6087 38.6734 28.0649 36.4136 22.8526Z" fill="white"/>
<path fill-rule="evenodd" clip-rule="evenodd" d="M102.776 30.4842L98.3335 26.4763L100.516 24.1544L102.478 22.0637L100.67 19.8381C97.1411 15.4833 91.4966 13.7395 85.5732 15.175C77.3323 17.1597 72.6878 24.27 74.5245 32.0643C75.2649 35.2051 77.2265 37.8932 80.0632 39.637C83.4481 41.7277 87.7079 42.2961 92.0447 41.246C96.6219 40.138 99.9875 38.2785 102.94 35.2244L105.305 32.7772L102.776 30.4842Z" fill="#0B0000"/>
<path fill-rule="evenodd" clip-rule="evenodd" d="M95.9462 28.5861C94.8308 29.9061 93.5518 31.1104 91.2825 31.6595C90.5228 31.8426 89.4939 32.016 88.84 31.9004L98.3887 21.7167C95.6962 18.3928 91.2729 16.8513 86.263 18.0652C80.0318 19.5682 75.8201 24.7709 77.3778 31.3994C78.6279 36.7273 84.5129 39.9934 91.3402 38.3459C95.475 37.3439 98.3502 35.7446 100.927 33.0758L95.9462 28.5861Z" fill="white"/>
<path fill-rule="evenodd" clip-rule="evenodd" d="M81.0334 13.4979L92.7264 0L99.198 9.68267L84.4183 17.6408L81.0334 13.4979Z" fill="#0B0000"/>
<path fill-rule="evenodd" clip-rule="evenodd" d="M92.2256 4.29663L95.6489 8.95973L85.8695 13.8155L85.1868 12.7846L92.2256 4.29663Z" fill="white"/>
<path fill-rule="evenodd" clip-rule="evenodd" d="M84.9778 28.7393C84.2758 27.4579 84.4104 25.8104 85.4586 24.6639C86.4682 23.5559 88.0068 23.238 89.3242 23.7486L84.9778 28.7393ZM85.4586 24.6639C84.42 25.8104 84.2758 27.4579 84.9778 28.7393L89.3242 23.7486C88.0068 23.238 86.4586 23.5559 85.4586 24.6639ZM91.7377 22.9971C89.5069 20.9642 86.0644 21.128 84.0354 23.3632C82.0064 25.5984 82.1699 29.0476 84.4008 31.0805C84.5835 31.2539 84.7854 31.3984 84.9874 31.5333L92.132 23.3825C91.9974 23.2476 91.8724 23.1224 91.7377 22.9971ZM84.9778 28.7393C84.2758 27.4579 84.4104 25.8104 85.4586 24.6639C86.4682 23.5559 88.0068 23.238 89.3242 23.7486L84.9778 28.7393Z" fill="black"/>
<path fill-rule="evenodd" clip-rule="evenodd" d="M31.5024 27.8149C30.9447 24.7415 26.9541 23.017 22.9539 25.1655L23.9539 28.6917L25.5309 33.8943L26.2521 36.2644C29.2523 34.3664 32.2717 32.0734 31.5024 27.8149ZM27.531 32.5166C27.0983 31.0907 26.1656 28.0173 26.1656 28.0173C26.1752 28.0365 25.9733 27.3525 25.7617 26.5914C26.6079 26.4372 27.4156 26.5143 28.0888 26.8419C28.4638 27.0249 29.1081 27.4392 29.2427 28.2292C29.56 29.9923 28.9542 31.2545 27.531 32.5166Z" fill="black"/>
<path fill-rule="evenodd" clip-rule="evenodd" d="M33.2158 62.8945C33.2254 62.9234 33.2351 62.9427 33.2447 62.9716C33.2447 62.9812 33.2543 62.9909 33.2543 63.0005C33.2447 62.962 33.2254 62.9331 33.2158 62.8945Z" fill="black"/>
<path fill-rule="evenodd" clip-rule="evenodd" d="M159.046 56.7092H161.922V57.1331H160.729V60.2644H160.239V57.1331H159.046V56.7092Z" fill="black"/>
<path fill-rule="evenodd" clip-rule="evenodd" d="M162.347 60.2644V56.7092H163.04L164.059 59.7152L165.069 56.7092H165.751V60.2644H165.299V58.164C165.299 58.087 165.299 57.9713 165.309 57.8076C165.309 57.6438 165.309 57.4607 165.309 57.268L164.299 60.2644H163.828L162.809 57.268V57.374C162.809 57.4607 162.809 57.5956 162.819 57.769C162.819 57.9424 162.828 58.0773 162.828 58.164V60.2644H162.347Z" fill="black"/>
</svg>
